<?xml version="1.0" encoding="utf-8"?><!DOCTYPE svg PUBLIC "-//W3C//DTD SVG 1.1//EN" "http://www.w3.org/Graphics/SVG/1.1/DTD/svg11.dtd"><svg version="1.1" id="Capa_1" xmlns="http://www.w3.org/2000/svg" xmlns:xlink="http://www.w3.org/1999/xlink" x="0px" y="0px" width="200px" height="38.167px" viewBox="0 0 200 38.167" enable-background="new 0 0 200 38.167" xml:space="preserve"><g><path fill="#CECECE" d="M18.52,1.129c3.219,0,2.409,10.807,5.013,12.789c2.606,1.982,12.44-1.953,13.435,1.255c0.995,3.208-8.915,5.523-9.91,8.735c-0.996,3.208,5.469,12.004,2.863,13.99c-2.606,1.982-8.181-7.653-11.4-7.653c-3.221,0-8.798,9.635-11.402,7.653c-2.606-1.986,3.857-10.782,2.863-13.99c-0.995-3.211-10.905-5.526-9.91-8.735c0.997-3.208,10.829,0.727,13.435-1.255C16.109,11.937,15.299,1.129,18.52,1.129z"/><path fill="#CECECE" d="M59.26,1.129c3.219,0,2.409,10.807,5.013,12.789c2.606,1.982,12.44-1.953,13.435,1.255c0.995,3.208-8.916,5.523-9.91,8.735c-0.997,3.208,5.469,12.004,2.863,13.99c-2.606,1.982-8.182-7.653-11.4-7.653c-3.221,0-8.798,9.635-11.402,7.653c-2.606-1.986,3.857-10.782,2.863-13.99c-0.995-3.211-10.905-5.526-9.911-8.735c0.997-3.208,10.829,0.727,13.435-1.255C56.85,11.937,56.039,1.129,59.26,1.129z"/><path fill="#CECECE" d="M100,1.129c3.219,0,2.409,10.807,5.011,12.789c2.608,1.982,12.442-1.953,13.437,1.255c0.995,3.208-8.916,5.523-9.91,8.735c-0.995,3.208,5.469,12.004,2.861,13.99c-2.604,1.982-8.18-7.653-11.399-7.653c-3.221,0-8.798,9.635-11.402,7.653c-2.605-1.986,3.858-10.782,2.863-13.99c-0.995-3.211-10.905-5.526-9.911-8.735c0.997-3.208,10.829,0.727,13.435-1.255C97.59,11.937,96.78,1.129,100,1.129z"/><path fill="#CECECE" d="M140.74,1.129c3.219,0,2.409,10.807,5.013,12.789c2.608,1.982,12.442-1.953,13.437,1.255c0.994,3.208-8.916,5.523-9.91,8.735c-0.995,3.208,5.469,12.004,2.86,13.99c-2.604,1.982-8.181-7.653-11.4-7.653c-3.219,0-8.797,9.635-11.401,7.653c-2.604-1.986,3.855-10.782,2.865-13.99c-0.998-3.211-10.908-5.526-9.91-8.735c0.995-3.208,10.829,0.727,13.433-1.255S137.521,1.129,140.74,1.129z"/><path fill="#CECECE" d="M181.48,1.129c3.219,0,2.409,10.807,5.012,12.789c2.608,1.982,12.442-1.953,13.438,1.255c0.994,3.208-8.916,5.523-9.91,8.735c-0.995,3.208,5.469,12.004,2.86,13.99c-2.604,1.982-8.181-7.653-11.4-7.653c-3.22,0-8.797,9.635-11.401,7.653c-2.604-1.986,3.855-10.782,2.865-13.99c-0.999-3.211-10.909-5.526-9.91-8.735c0.994-3.208,10.829,0.727,13.433-1.255C179.071,11.937,178.261,1.129,181.48,1.129z"/></g></svg>