<svg xmlns="http://www.w3.org/2000/svg" xmlns:xlink="http://www.w3.org/1999/xlink" preserveAspectRatio="xMidYMid" width="11" height="40" viewBox="0 0 11 40">
  <defs>
    <style>
      .cls-2 {
        fill: #636363;
      }
    </style>
  </defs>
  <path d="M7.000,20.000 C7.000,20.000 7.000,33.000 7.000,33.000 C7.000,33.000 11.000,33.000 11.000,33.000 C11.000,33.000 5.500,40.000 5.500,40.000 C5.500,40.000 -0.000,33.000 -0.000,33.000 C-0.000,33.000 4.000,33.000 4.000,33.000 C4.000,33.000 4.000,20.000 4.000,20.000 C4.000,20.000 4.000,7.000 4.000,7.000 C4.000,7.000 -0.000,7.000 -0.000,7.000 C-0.000,7.000 5.500,0.000 5.500,0.000 C5.500,0.000 11.000,7.000 11.000,7.000 C11.000,7.000 7.000,7.000 7.000,7.000 C7.000,7.000 7.000,20.000 7.000,20.000 Z" id="path-1" class="cls-2" fill-rule="evenodd"/>
</svg>
