<svg width="60" height="40" xmlns="http://www.w3.org/2000/svg">  <path id="svg_1" fill-rule="evenodd" fill="rgb(255,255,255)" d="m53.993999,29.993311c0,0 0,2.044001 0,2.044001c0,0 -1.271999,0 -1.271999,0c0,0 0,-2.044001 0,-2.044001c0,0 -2.008999,0 -2.008999,0c0,0 0,-1.294001 0,-1.294001c0,0 2.008999,0 2.008999,0c0,0 0,-2.043001 0,-2.043001c0,0 1.271999,0 1.271999,0c0,0 0,2.043001 0,2.043001c0,0 2.007999,0 2.007999,0c0,0 0,1.294001 0,1.294001c0,0 -2.007999,0 -2.007999,0zm-3.151001,-21.706001c0,0 2.155003,0 2.155003,0c0,0 -0.526001,1.766001 -0.526001,1.766001c0,0 -1.629002,0 -1.629002,0c0,0 0,5.940001 0,5.940001c0,0 -2.468998,0 -2.468998,0c0,0 0.009998,-3.131001 0.017998,-5.940001c0,0 -1.383999,0 -1.383999,0c0,0 0,-1.766001 0,-1.766001c0,0 1.387001,0 1.387001,0c0.002998,-0.967999 0.005001,-1.776999 0.005001,-2.221999c0,-2.069 2.022999,-2.061 2.022999,-2.061c0,0 2.417,0 2.417,0c0,0 0,2.195 0,2.195c0,0 -0.630001,0 -1.418999,0c-0.699001,0 -0.578003,1.017 -0.578003,1.017c0,0 0,1.070999 0,1.070999zm-0.010998,15.724001c0,0 0,0.067999 0,0.067999c0,0.351 -0.617001,0.418001 -1.040001,0.476c-0.141998,0.02 -0.429001,0.051001 -0.511002,0.094c0.780003,0.422001 0.906002,1.089001 0.906002,2.081001c0,1.129999 -0.434002,1.726999 -0.896,2.146999c-0.284,0.259001 -0.508999,0.464001 -0.508999,0.737c0,0.267 0.307999,0.543001 0.664997,0.861c0.585003,0.523001 1.385002,1.239 1.385002,2.441c0,1.243999 -0.525002,2.133999 -1.562,2.646c-0.799,0.395 -1.659,0.438 -1.992001,0.438c-0.063,0 -0.099998,-0.000999 -0.105999,-0.000999c0,0 -0.023003,0 -0.063999,0c-0.519001,0 -3.104,-0.120998 -3.104,-2.516998c0,-2.355001 2.814999,-2.538002 3.677998,-2.538002c0,0 0.021999,0 0.021999,0c-0.497997,-0.675999 -0.393997,-1.359999 -0.393997,-1.359999c-0.045002,0.003 -0.108002,0.005999 -0.187,0.005999c-0.325012,0 -0.951,-0.052 -1.490002,-0.405998c-0.659,-0.431002 -0.992001,-1.166 -0.992001,-2.183001c0,-2.873001 3.082001,-2.989 3.113003,-2.99c0,0 3.077988,0 3.077988,0l0.000011,0zm-3.184002,7.546999c-0.069,0 -0.138,0.003 -0.206997,0.007c-0.59,0.045 -1.131001,0.269001 -1.526001,0.632002c-0.389,0.358997 -0.587002,0.809998 -0.559002,1.268997c0.059002,0.957001 1.07,1.52 2.299,1.429001c1.209,-0.09 2.014,-0.797001 1.955002,-1.755001c-0.055,-0.901997 -0.825001,-1.581999 -1.962002,-1.581999zm-0.739998,-6.660999c-0.348,0.1 -0.625,0.396 -0.778999,0.834999c-0.156002,0.445002 -0.167,0.909 -0.031002,1.439001c0.244999,0.944 0.903999,1.629999 1.57,1.629999c0.088001,0 0.174,-0.013 0.257999,-0.035999c0.726002,-0.209 1.182003,-1.339001 0.880001,-2.42c-0.32,-1.145 -0.835999,-1.484001 -1.639999,-1.484001c-0.088001,0 -0.174,0.012001 -0.257999,0.036001zm-12.135002,2.584999c0,0 0.007999,0.327002 0.007999,0.327002c0,3.334999 -2.475998,7.181 -7.003998,7.181c-1.391001,0 -2.684,-0.419003 -3.774,-1.133999c0.192999,0.021999 0.388,0.033997 0.587,0.033997c1.153,0 2.215,-0.403 3.056999,-1.078999c-1.076,-0.021 -1.984999,-0.750999 -2.299,-1.754c0.151001,0.030001 0.305,0.046 0.464001,0.046c0.225,0 0.441999,-0.031 0.647999,-0.087999c-1.125,-0.233 -1.973999,-1.253 -1.973999,-2.475c0,0 0,-0.032 0,-0.032c0.332001,0.188999 0.711,0.302999 1.115,0.316999c-0.66,-0.452 -1.094999,-1.225 -1.094999,-2.1c0,-0.462999 0.121,-0.896999 0.333,-1.268999c1.213999,1.527 3.028,2.532 5.073999,2.636999c-0.042,-0.184 -0.063999,-0.376999 -0.063999,-0.574999c0,-1.393 1.101999,-2.523001 2.462,-2.523001c0.709,0 1.348,0.306 1.797001,0.797001c0.560997,-0.114 1.087997,-0.324001 1.563999,-0.613001c-0.184002,0.587999 -0.574001,1.083 -1.082001,1.396c0.498001,-0.060999 0.971001,-0.197001 1.412998,-0.397999c-0.329998,0.505999 -0.747997,0.949999 -1.23,1.304998zm-4.102999,-14.778999c-0.625,-0.056 -0.886999,-0.418 -1.377001,-0.765999c-0.269999,1.651999 -0.598999,3.235999 -1.574999,4.063c-0.301001,-2.497001 0.441999,-4.372001 0.786999,-6.363001c-0.587999,-1.158 0.071001,-3.487999 1.312,-2.913c1.528,0.706 -1.321999,4.303 0.591002,4.753c1.996998,0.469 2.813,-4.05 1.573999,-5.52c-1.789,-2.122 -5.209,-0.049 -4.789,2.990001c0.102999,0.743 0.758999,0.967999 0.262999,1.993c-1.146,-0.297001 -1.487,-1.352001 -1.442999,-2.760001c0.07,-2.304 1.771,-3.917 3.476,-4.14c2.157,-0.282 4.182001,0.926 4.461,3.297c0.314999,2.676 -0.973003,5.574999 -3.280001,5.366zm-20.286,3.098c-1.235,-0.29 -1.929999,-1.061999 -2.089999,-2.353999c0,-0.059 0,-0.117001 0,-0.175c0,-0.078 0,-1.601999 -0.021001,-4.557c0,0 -1.273,0 -1.273,0c0,0 0,-2.104 0,-2.104c0.259,0.019 0.497,0 0.756,-0.115c0.876,-0.367 1.393,-1.043 1.572,-2.007c0,-0.058 0.021,-0.099 0.039001,-0.155c0,-0.117 0.021,-0.232 0.059999,-0.328c0,0 1.734,0 1.734,0c0,0 0,2.605 0,2.605c0,0 2.764,0 2.764,0c0,0 0,2.104 0,2.104c0,0 -2.764,0 -2.764,0c0,0 0,3.282001 0,3.282001c0,0.310999 0.039,0.638 0.097,0.947001c0.02,0.076999 0.08,0.153999 0.12,0.211999c0.419,0.387 0.936,0.503001 1.552999,0.327c0.317,-0.09499 0.678,-0.19199 1.075,-0.308c0,0 0,2.471 0,2.471c-0.676999,0.213 -1.355,0.329001 -2.049999,0.348001c-0.539001,0 -1.075001,-0.05699 -1.572001,-0.193001z"/></svg>