<svg xmlns="http://www.w3.org/2000/svg" xmlns:xlink="http://www.w3.org/1999/xlink" preserveAspectRatio="xMidYMid" width="20" height="40" viewBox="0 0 20 40">
  <defs>
    <style>

      .cls-2 {
        fill: #a2a2a2;
      }
    </style>
  </defs>
  <path d="M19.943,34.056 C19.878,34.174 19.760,34.272 19.593,34.347 C19.551,34.366 19.506,34.378 19.461,34.384 C19.063,34.435 17.184,34.844 13.897,34.844 C14.323,36.168 14.372,36.388 14.372,37.658 C14.372,39.065 13.507,39.987 12.965,40.000 C12.708,40.000 12.500,39.793 12.497,39.537 C12.476,37.688 11.580,35.353 9.168,34.359 C8.914,34.279 8.743,34.057 8.743,33.805 C8.743,33.805 8.747,26.407 8.747,26.407 C8.747,26.011 9.179,25.938 9.179,25.938 C9.312,25.898 9.425,25.855 11.551,25.342 C11.587,25.334 12.981,25.000 14.387,25.000 C14.387,25.000 17.183,25.000 17.183,25.000 C17.710,25.000 17.959,25.176 18.114,25.468 C18.133,25.505 19.988,29.272 20.000,33.829 C20.000,33.908 19.981,33.986 19.943,34.056 ZM14.532,15.000 C14.532,15.000 13.594,14.990 13.594,14.990 C13.335,14.990 13.126,14.781 13.126,14.522 C13.126,14.522 13.126,6.083 13.126,6.083 C13.126,5.824 13.335,5.624 13.594,5.624 C13.594,5.624 14.532,5.624 14.532,5.624 C14.791,5.624 15.000,5.833 15.000,6.092 C15.000,6.092 15.000,14.531 15.000,14.531 C15.000,14.790 14.791,15.000 14.532,15.000 ZM10.821,14.062 C10.688,14.102 10.575,14.145 8.449,14.658 C8.413,14.666 7.019,15.000 5.613,15.000 C5.613,15.000 2.817,15.000 2.817,15.000 C2.290,15.000 2.041,14.824 1.886,14.532 C1.867,14.495 0.012,10.728 -0.000,6.171 C-0.000,6.092 0.019,6.014 0.057,5.944 C0.122,5.826 0.240,5.728 0.407,5.653 C0.449,5.634 0.494,5.622 0.539,5.616 C0.937,5.565 2.816,5.156 6.103,5.156 C5.677,3.832 5.628,3.612 5.628,2.342 C5.628,0.935 6.493,0.013 7.035,0.000 C7.292,0.000 7.500,0.207 7.503,0.463 C7.524,2.312 8.420,4.647 10.832,5.641 C11.086,5.721 11.257,5.943 11.257,6.195 C11.257,6.195 11.253,13.593 11.253,13.593 C11.253,13.989 10.821,14.062 10.821,14.062 ZM5.468,25.000 C5.468,25.000 6.406,25.010 6.406,25.010 C6.665,25.010 6.874,25.219 6.874,25.478 C6.874,25.478 6.874,33.917 6.874,33.917 C6.874,34.176 6.665,34.376 6.406,34.376 C6.406,34.376 5.468,34.376 5.468,34.376 C5.209,34.376 5.000,34.167 5.000,33.908 C5.000,33.908 5.000,25.469 5.000,25.469 C5.000,25.210 5.209,25.000 5.468,25.000 Z" id="path-1" class="cls-2" fill-rule="evenodd"/>
</svg>
